<?xml version="1.0" encoding="UTF-8" standalone="no"?>
<!DOCTYPE svg PUBLIC "-//W3C//DTD SVG 1.1//EN"
 "http://www.w3.org/Graphics/SVG/1.1/DTD/svg11.dtd">
<!-- Generated by graphviz version 2.38.0 (20140413.2041)
 -->
<!-- Title: controllers_diagram Pages: 1 -->
<svg width="702pt" height="630pt"
 viewBox="0.00 0.00 701.50 630.00" xmlns="http://www.w3.org/2000/svg" xmlns:xlink="http://www.w3.org/1999/xlink">
<g id="graph0" class="graph" transform="scale(1 1) rotate(0) translate(259 371.5)">
<title>controllers_diagram</title>
<polygon fill="none" stroke="none" points="-259,258.5 -259,-371.5 442.5,-371.5 442.5,258.5 -259,258.5"/>
<!-- _diagram_info -->
<g id="node1" class="node"><title>_diagram_info</title>
<text text-anchor="start" x="-94" y="-216.6" font-family="Times,serif" font-size="13.00">Controllers diagram</text>
<text text-anchor="start" x="-94" y="-202.6" font-family="Times,serif" font-size="13.00">Date: Mar 14 2017 &#45; 10:59</text>
<text text-anchor="start" x="-94" y="-188.6" font-family="Times,serif" font-size="13.00">Migration version: 20170314135710</text>
<text text-anchor="start" x="-94" y="-174.6" font-family="Times,serif" font-size="13.00">Generated by RailRoady 1.5.2</text>
<text text-anchor="start" x="-94" y="-160.6" font-family="Times,serif" font-size="13.00">http://railroady.prestonlee.com</text>
</g>
<!-- CompaniesController -->
<g id="node2" class="node"><title>CompaniesController</title>
<path fill="none" stroke="black" d="M-56,118.5C-56,118.5 54,118.5 54,118.5 60,118.5 66,112.5 66,106.5 66,106.5 66,-82.5 66,-82.5 66,-88.5 60,-94.5 54,-94.5 54,-94.5 -56,-94.5 -56,-94.5 -62,-94.5 -68,-88.5 -68,-82.5 -68,-82.5 -68,106.5 -68,106.5 -68,112.5 -62,118.5 -56,118.5"/>
<text text-anchor="middle" x="-1" y="-79.3" font-family="Times,serif" font-size="14.00">CompaniesController</text>
<polyline fill="none" stroke="black" points="-68,-71.5 66,-71.5 "/>
<text text-anchor="start" x="-60" y="-56.3" font-family="Times,serif" font-size="14.00">create</text>
<text text-anchor="start" x="-60" y="-41.3" font-family="Times,serif" font-size="14.00">destroy</text>
<text text-anchor="start" x="-60" y="-26.3" font-family="Times,serif" font-size="14.00">edit</text>
<text text-anchor="start" x="-60" y="-11.3" font-family="Times,serif" font-size="14.00">index</text>
<text text-anchor="start" x="-60" y="3.7" font-family="Times,serif" font-size="14.00">new</text>
<text text-anchor="start" x="-60" y="18.7" font-family="Times,serif" font-size="14.00">show</text>
<text text-anchor="start" x="-60" y="33.7" font-family="Times,serif" font-size="14.00">update</text>
<polyline fill="none" stroke="black" points="-68,41.5 66,41.5 "/>
<polyline fill="none" stroke="black" points="-68,65.5 66,65.5 "/>
<text text-anchor="start" x="-60" y="80.7" font-family="Times,serif" font-size="14.00">_layout</text>
<text text-anchor="start" x="-60" y="95.7" font-family="Times,serif" font-size="14.00">company_params</text>
<text text-anchor="start" x="-60" y="110.7" font-family="Times,serif" font-size="14.00">set_company</text>
</g>
<!-- Users::OmniauthCallbacksController -->
<g id="node3" class="node"><title>Users::OmniauthCallbacksController</title>
<path fill="none" stroke="black" d="M165,-154C165,-154 359,-154 359,-154 365,-154 371,-160 371,-166 371,-166 371,-236 371,-236 371,-242 365,-248 359,-248 359,-248 165,-248 165,-248 159,-248 153,-242 153,-236 153,-236 153,-166 153,-166 153,-160 159,-154 165,-154"/>
<text text-anchor="middle" x="262" y="-232.8" font-family="Times,serif" font-size="14.00">Users::OmniauthCallbacksController</text>
<polyline fill="none" stroke="black" points="153,-225 371,-225 "/>
<polyline fill="none" stroke="black" points="153,-201 371,-201 "/>
<polyline fill="none" stroke="black" points="153,-177 371,-177 "/>
<text text-anchor="start" x="161" y="-161.8" font-family="Times,serif" font-size="14.00">_layout</text>
</g>
<!-- Users::RegistrationsController -->
<g id="node4" class="node"><title>Users::RegistrationsController</title>
<path fill="none" stroke="black" d="M-243,254C-243,254 -85,254 -85,254 -79,254 -73,248 -73,242 -73,242 -73,172 -73,172 -73,166 -79,160 -85,160 -85,160 -243,160 -243,160 -249,160 -255,166 -255,172 -255,172 -255,242 -255,242 -255,248 -249,254 -243,254"/>
<text text-anchor="middle" x="-164" y="175.2" font-family="Times,serif" font-size="14.00">Users::RegistrationsController</text>
<polyline fill="none" stroke="black" points="-255,183 -73,183 "/>
<polyline fill="none" stroke="black" points="-255,207 -73,207 "/>
<polyline fill="none" stroke="black" points="-255,231 -73,231 "/>
<text text-anchor="start" x="-247" y="246.2" font-family="Times,serif" font-size="14.00">_layout</text>
</g>
<!-- Users::UnlocksController -->
<g id="node5" class="node"><title>Users::UnlocksController</title>
<path fill="none" stroke="black" d="M-242.5,-18C-242.5,-18 -111.5,-18 -111.5,-18 -105.5,-18 -99.5,-24 -99.5,-30 -99.5,-30 -99.5,-100 -99.5,-100 -99.5,-106 -105.5,-112 -111.5,-112 -111.5,-112 -242.5,-112 -242.5,-112 -248.5,-112 -254.5,-106 -254.5,-100 -254.5,-100 -254.5,-30 -254.5,-30 -254.5,-24 -248.5,-18 -242.5,-18"/>
<text text-anchor="middle" x="-177" y="-96.8" font-family="Times,serif" font-size="14.00">Users::UnlocksController</text>
<polyline fill="none" stroke="black" points="-254.5,-89 -99.5,-89 "/>
<polyline fill="none" stroke="black" points="-254.5,-65 -99.5,-65 "/>
<polyline fill="none" stroke="black" points="-254.5,-41 -99.5,-41 "/>
<text text-anchor="start" x="-246.5" y="-25.8" font-family="Times,serif" font-size="14.00">_layout</text>
</g>
<!-- Users::ConfirmationsController -->
<g id="node6" class="node"><title>Users::ConfirmationsController</title>
<path fill="none" stroke="black" d="M114.5,237C114.5,237 279.5,237 279.5,237 285.5,237 291.5,231 291.5,225 291.5,225 291.5,155 291.5,155 291.5,149 285.5,143 279.5,143 279.5,143 114.5,143 114.5,143 108.5,143 102.5,149 102.5,155 102.5,155 102.5,225 102.5,225 102.5,231 108.5,237 114.5,237"/>
<text text-anchor="middle" x="197" y="158.2" font-family="Times,serif" font-size="14.00">Users::ConfirmationsController</text>
<polyline fill="none" stroke="black" points="102.5,166 291.5,166 "/>
<polyline fill="none" stroke="black" points="102.5,190 291.5,190 "/>
<polyline fill="none" stroke="black" points="102.5,214 291.5,214 "/>
<text text-anchor="start" x="110.5" y="229.2" font-family="Times,serif" font-size="14.00">_layout</text>
</g>
<!-- Users::SessionsController -->
<g id="node7" class="node"><title>Users::SessionsController</title>
<path fill="none" stroke="black" d="M-242.5,118C-242.5,118 -109.5,118 -109.5,118 -103.5,118 -97.5,112 -97.5,106 -97.5,106 -97.5,36 -97.5,36 -97.5,30 -103.5,24 -109.5,24 -109.5,24 -242.5,24 -242.5,24 -248.5,24 -254.5,30 -254.5,36 -254.5,36 -254.5,106 -254.5,106 -254.5,112 -248.5,118 -242.5,118"/>
<text text-anchor="middle" x="-176" y="39.2" font-family="Times,serif" font-size="14.00">Users::SessionsController</text>
<polyline fill="none" stroke="black" points="-254.5,47 -97.5,47 "/>
<polyline fill="none" stroke="black" points="-254.5,71 -97.5,71 "/>
<polyline fill="none" stroke="black" points="-254.5,95 -97.5,95 "/>
<text text-anchor="start" x="-246.5" y="110.2" font-family="Times,serif" font-size="14.00">_layout</text>
</g>
<!-- Users::PasswordsController -->
<g id="node8" class="node"><title>Users::PasswordsController</title>
<path fill="none" stroke="black" d="M283.5,101C283.5,101 426.5,101 426.5,101 432.5,101 438.5,95 438.5,89 438.5,89 438.5,19 438.5,19 438.5,13 432.5,7 426.5,7 426.5,7 283.5,7 283.5,7 277.5,7 271.5,13 271.5,19 271.5,19 271.5,89 271.5,89 271.5,95 277.5,101 283.5,101"/>
<text text-anchor="middle" x="355" y="22.2" font-family="Times,serif" font-size="14.00">Users::PasswordsController</text>
<polyline fill="none" stroke="black" points="271.5,30 438.5,30 "/>
<polyline fill="none" stroke="black" points="271.5,54 438.5,54 "/>
<polyline fill="none" stroke="black" points="271.5,78 438.5,78 "/>
<text text-anchor="start" x="279.5" y="93.2" font-family="Times,serif" font-size="14.00">_layout</text>
</g>
<!-- ApplicationController -->
<g id="node9" class="node"><title>ApplicationController</title>
<path fill="none" stroke="black" d="M-5,-273C-5,-273 107,-273 107,-273 113,-273 119,-279 119,-285 119,-285 119,-355 119,-355 119,-361 113,-367 107,-367 107,-367 -5,-367 -5,-367 -11,-367 -17,-361 -17,-355 -17,-355 -17,-285 -17,-285 -17,-279 -11,-273 -5,-273"/>
<text text-anchor="middle" x="51" y="-351.8" font-family="Times,serif" font-size="14.00">ApplicationController</text>
<polyline fill="none" stroke="black" points="-17,-344 119,-344 "/>
<polyline fill="none" stroke="black" points="-17,-320 119,-320 "/>
<polyline fill="none" stroke="black" points="-17,-296 119,-296 "/>
<text text-anchor="start" x="-9" y="-280.8" font-family="Times,serif" font-size="14.00">_layout</text>
</g>
<!-- ComplaintsController -->
<g id="node10" class="node"><title>ComplaintsController</title>
<path fill="none" stroke="black" d="M114.5,101.5C114.5,101.5 225.5,101.5 225.5,101.5 231.5,101.5 237.5,95.5 237.5,89.5 237.5,89.5 237.5,-99.5 237.5,-99.5 237.5,-105.5 231.5,-111.5 225.5,-111.5 225.5,-111.5 114.5,-111.5 114.5,-111.5 108.5,-111.5 102.5,-105.5 102.5,-99.5 102.5,-99.5 102.5,89.5 102.5,89.5 102.5,95.5 108.5,101.5 114.5,101.5"/>
<text text-anchor="middle" x="170" y="-96.3" font-family="Times,serif" font-size="14.00">ComplaintsController</text>
<polyline fill="none" stroke="black" points="102.5,-88.5 237.5,-88.5 "/>
<text text-anchor="start" x="110.5" y="-73.3" font-family="Times,serif" font-size="14.00">create</text>
<text text-anchor="start" x="110.5" y="-58.3" font-family="Times,serif" font-size="14.00">destroy</text>
<text text-anchor="start" x="110.5" y="-43.3" font-family="Times,serif" font-size="14.00">edit</text>
<text text-anchor="start" x="110.5" y="-28.3" font-family="Times,serif" font-size="14.00">index</text>
<text text-anchor="start" x="110.5" y="-13.3" font-family="Times,serif" font-size="14.00">new</text>
<text text-anchor="start" x="110.5" y="1.7" font-family="Times,serif" font-size="14.00">show</text>
<text text-anchor="start" x="110.5" y="16.7" font-family="Times,serif" font-size="14.00">update</text>
<polyline fill="none" stroke="black" points="102.5,24.5 237.5,24.5 "/>
<polyline fill="none" stroke="black" points="102.5,48.5 237.5,48.5 "/>
<text text-anchor="start" x="110.5" y="63.7" font-family="Times,serif" font-size="14.00">_layout</text>
<text text-anchor="start" x="110.5" y="78.7" font-family="Times,serif" font-size="14.00">complaint_params</text>
<text text-anchor="start" x="110.5" y="93.7" font-family="Times,serif" font-size="14.00">set_complaint</text>
</g>
</g>
</svg>
