<?xml version="1.0" encoding="UTF-8" standalone="no"?>
<!DOCTYPE svg PUBLIC "-//W3C//DTD SVG 1.1//EN"
 "http://www.w3.org/Graphics/SVG/1.1/DTD/svg11.dtd">
<!-- Generated by graphviz version 2.38.0 (20140413.2041)
 -->
<!-- Title: models_diagram Pages: 1 -->
<svg width="988pt" height="393pt"
 viewBox="0.00 0.00 988.34 393.00" xmlns="http://www.w3.org/2000/svg" xmlns:xlink="http://www.w3.org/1999/xlink">
<g id="graph0" class="graph" transform="scale(1 1) rotate(0) translate(4 389)">
<title>models_diagram</title>
<polygon fill="none" stroke="none" points="-4,4 -4,-389 984.343,-389 984.343,4 -4,4"/>
<!-- _diagram_info -->
<g id="node1" class="node"><title>_diagram_info</title>
<text text-anchor="start" x="8" y="-296.1" font-family="Times,serif" font-size="13.00">Models diagram</text>
<text text-anchor="start" x="8" y="-282.1" font-family="Times,serif" font-size="13.00">Date: Mar 14 2017 &#45; 10:59</text>
<text text-anchor="start" x="8" y="-268.1" font-family="Times,serif" font-size="13.00">Migration version: 20170314135710</text>
<text text-anchor="start" x="8" y="-254.1" font-family="Times,serif" font-size="13.00">Generated by RailRoady 1.5.2</text>
<text text-anchor="start" x="8" y="-240.1" font-family="Times,serif" font-size="13.00">http://railroady.prestonlee.com</text>
</g>
<!-- Company -->
<g id="node2" class="node"><title>Company</title>
<path fill="none" stroke="black" d="M244,-226C244,-226 464,-226 464,-226 470,-226 476,-232 476,-238 476,-238 476,-305 476,-305 476,-311 470,-317 464,-317 464,-317 244,-317 244,-317 238,-317 232,-311 232,-305 232,-305 232,-238 232,-238 232,-232 238,-226 244,-226"/>
<text text-anchor="middle" x="354" y="-301.8" font-family="Times,serif" font-size="14.00">Company</text>
<polyline fill="none" stroke="black" points="232,-294 476,-294 "/>
<text text-anchor="start" x="240" y="-278.8" font-family="Times,serif" font-size="14.00">id :integer</text>
<text text-anchor="start" x="240" y="-263.8" font-family="Times,serif" font-size="14.00">name :character varying</text>
<text text-anchor="start" x="240" y="-248.8" font-family="Times,serif" font-size="14.00">created_at :timestamp without time zone</text>
<text text-anchor="start" x="240" y="-233.8" font-family="Times,serif" font-size="14.00">updated_at :timestamp without time zone</text>
</g>
<!-- Complaint -->
<g id="node3" class="node"><title>Complaint</title>
<path fill="none" stroke="black" d="M392,-0.5C392,-0.5 612,-0.5 612,-0.5 618,-0.5 624,-6.5 624,-12.5 624,-12.5 624,-109.5 624,-109.5 624,-115.5 618,-121.5 612,-121.5 612,-121.5 392,-121.5 392,-121.5 386,-121.5 380,-115.5 380,-109.5 380,-109.5 380,-12.5 380,-12.5 380,-6.5 386,-0.5 392,-0.5"/>
<text text-anchor="middle" x="502" y="-106.3" font-family="Times,serif" font-size="14.00">Complaint</text>
<polyline fill="none" stroke="black" points="380,-98.5 624,-98.5 "/>
<text text-anchor="start" x="388" y="-83.3" font-family="Times,serif" font-size="14.00">id :integer</text>
<text text-anchor="start" x="388" y="-68.3" font-family="Times,serif" font-size="14.00">content :text</text>
<text text-anchor="start" x="388" y="-53.3" font-family="Times,serif" font-size="14.00">user_id :integer</text>
<text text-anchor="start" x="388" y="-38.3" font-family="Times,serif" font-size="14.00">company_id :integer</text>
<text text-anchor="start" x="388" y="-23.3" font-family="Times,serif" font-size="14.00">created_at :timestamp without time zone</text>
<text text-anchor="start" x="388" y="-8.3" font-family="Times,serif" font-size="14.00">updated_at :timestamp without time zone</text>
</g>
<!-- Company&#45;&gt;Complaint -->
<g id="edge1" class="edge"><title>Company&#45;&gt;Complaint</title>
<path fill="none" stroke="#48b8da" d="M390.403,-219.216C409.463,-192.365 433.055,-159.129 453.63,-130.143"/>
<ellipse fill="none" stroke="#48b8da" cx="388.065" cy="-222.51" rx="4.00002" ry="4.00002"/>
<polygon fill="#48b8da" stroke="#48b8da" points="453.839,-129.848 463.297,-124.298 456.734,-125.77 459.628,-121.693 459.628,-121.693 459.628,-121.693 456.734,-125.77 455.958,-119.088 453.839,-129.848 453.839,-129.848"/>
</g>
<!-- ApplicationRecord -->
<g id="node4" class="node"><title>ApplicationRecord</title>
<ellipse fill="none" stroke="black" cx="903" cy="-271.5" rx="77.1866" ry="18"/>
<text text-anchor="middle" x="903" y="-267.8" font-family="Times,serif" font-size="14.00">ApplicationRecord</text>
</g>
<!-- User -->
<g id="node5" class="node"><title>User</title>
<path fill="none" stroke="black" d="M506.5,-158.5C506.5,-158.5 795.5,-158.5 795.5,-158.5 801.5,-158.5 807.5,-164.5 807.5,-170.5 807.5,-170.5 807.5,-372.5 807.5,-372.5 807.5,-378.5 801.5,-384.5 795.5,-384.5 795.5,-384.5 506.5,-384.5 506.5,-384.5 500.5,-384.5 494.5,-378.5 494.5,-372.5 494.5,-372.5 494.5,-170.5 494.5,-170.5 494.5,-164.5 500.5,-158.5 506.5,-158.5"/>
<text text-anchor="middle" x="651" y="-369.3" font-family="Times,serif" font-size="14.00">User</text>
<polyline fill="none" stroke="black" points="494.5,-361.5 807.5,-361.5 "/>
<text text-anchor="start" x="502.5" y="-346.3" font-family="Times,serif" font-size="14.00">id :integer</text>
<text text-anchor="start" x="502.5" y="-331.3" font-family="Times,serif" font-size="14.00">email :character varying</text>
<text text-anchor="start" x="502.5" y="-316.3" font-family="Times,serif" font-size="14.00">encrypted_password :character varying</text>
<text text-anchor="start" x="502.5" y="-301.3" font-family="Times,serif" font-size="14.00">reset_password_token :character varying</text>
<text text-anchor="start" x="502.5" y="-286.3" font-family="Times,serif" font-size="14.00">reset_password_sent_at :timestamp without time zone</text>
<text text-anchor="start" x="502.5" y="-271.3" font-family="Times,serif" font-size="14.00">remember_created_at :timestamp without time zone</text>
<text text-anchor="start" x="502.5" y="-256.3" font-family="Times,serif" font-size="14.00">sign_in_count :integer</text>
<text text-anchor="start" x="502.5" y="-241.3" font-family="Times,serif" font-size="14.00">current_sign_in_at :timestamp without time zone</text>
<text text-anchor="start" x="502.5" y="-226.3" font-family="Times,serif" font-size="14.00">last_sign_in_at :timestamp without time zone</text>
<text text-anchor="start" x="502.5" y="-211.3" font-family="Times,serif" font-size="14.00">current_sign_in_ip :inet</text>
<text text-anchor="start" x="502.5" y="-196.3" font-family="Times,serif" font-size="14.00">last_sign_in_ip :inet</text>
<text text-anchor="start" x="502.5" y="-181.3" font-family="Times,serif" font-size="14.00">created_at :timestamp without time zone</text>
<text text-anchor="start" x="502.5" y="-166.3" font-family="Times,serif" font-size="14.00">updated_at :timestamp without time zone</text>
</g>
<!-- User&#45;&gt;Complaint -->
<g id="edge2" class="edge"><title>User&#45;&gt;Complaint</title>
<path fill="none" stroke="#233b86" d="M565.98,-151.529C560.693,-144.131 555.479,-136.835 550.446,-129.792"/>
<ellipse fill="none" stroke="#233b86" cx="568.504" cy="-155.061" rx="4.00002" ry="4.00002"/>
<polygon fill="#233b86" stroke="#233b86" points="550.442,-129.787 548.289,-119.034 547.535,-125.719 544.628,-121.651 544.628,-121.651 544.628,-121.651 547.535,-125.719 540.967,-124.267 550.442,-129.787 550.442,-129.787"/>
</g>
</g>
</svg>
